#!OML:ASF F:\VICON\USERDATA\INSTALL\rory3\rory3.ASF
:FULLY-SPECIFIED
:DEGREES
2551
root -11.2491 17.742 -1.18115 183.785 77.6613 166.133
lowerback 12.0963 -1.15547 -1.11102
upperback 5.86835 -1.22454 3.74477
thorax -0.523128 -0.540502 4.68341
lowerneck -10.2233 -6.75912 -8.34907
upperneck 36.9989 -7.05521 3.15144
head 15.0632 -3.19967 1.82603
rclavicle -1.27222e-014 1.59028e-015
rhumerus 2.91566 -45.613 -63.8175
rradius 30.9398
rwrist -2.299
rhand -43.702 -23.5857
rfingers 7.12502
rthumb -16.5343 -52.9012
lclavicle -1.27222e-014 1.59028e-015
lhumerus 4.53878 -67.88 88.7691
lradius 74.5317
lwrist 73.7002
lhand -9.83122 57.8783
lfingers 7.12502
lthumb 16.1462 -992.774
rfemur -40.8917 -2.27608 10.2967
rtibia 28.8412
rfoot -9.01906 -8.85359
rtoes 11.0178
lfemur -23.6985 -1.63276 -20.5693
ltibia 26.4966
lfoot -15.1282 2.46199
ltoes -19.0815
2552
root -11.3066 17.7399 -1.21993 184.26 78.0072 166.702
lowerback 11.9876 -1.12694 -1.07782
upperback 5.87338 -1.18741 3.7459
thorax -0.463447 -0.523407 4.65838
lowerneck -10.1997 -6.72066 -8.2906
upperneck 37.0103 -6.96714 3.01109
head 15.0461 -3.17348 1.77206
rclavicle -3.18055e-015 -2.54444e-014
rhumerus 3.32234 -45.0962 -64.6104
rradius 30.9869
rwrist -2.07072
rhand -43.3898 -23.4929
rfingers 7.12502
rthumb -16.2337 -52.8332
lclavicle -3.18055e-015 -2.54444e-014
lhumerus 3.47841 -67.4846 89.4472
lradius 74.5179
lwrist 73.4483
lhand -10.0062 56.9222
lfingers 7.12502
lthumb 15.9777 -993.717
rfemur -40.7843 -2.64793 10.5254
rtibia 28.5465
rfoot -9.40975 -8.07154
rtoes 9.25446
lfemur -23.9263 -1.3109 -20.6428
ltibia 26.8316
lfoot -15.1012 2.55217
ltoes -19.8128
2553
root -11.3629 17.7377 -1.25503 183.707 78.2926 166.17
lowerback 11.8954 -1.08088 -1.29272
upperback 5.8121 -1.15755 3.72555
thorax -0.47534 -0.514949 4.75427
lowerneck -10.1636 -6.69701 -8.39854
upperneck 37.0324 -6.89688 2.9827
head 15.0488 -3.16239 1.79145
rclavicle 1.59028e-014 1.59028e-014
rhumerus 3.60942 -44.3426 -65.3491
rradius 30.9977
rwrist -2.077
rhand -43.0873 -22.9043
rfingers 7.12502
rthumb -15.9424 -52.2681
lclavicle 1.59028e-014 1.59028e-014
lhumerus 2.17438 -66.953 90.3811
lradius 74.3325
lwrist 73.1461
lhand -9.84413 57.0328
lfingers 7.12502
lthumb 16.1337 -993.619
rfemur -40.6939 -2.97178 10.4261
rtibia 28.2907
rfoot -10.1433 -7.40891
rtoes 9.49916
lfemur -24.2046 -1.13527 -20.9606
ltibia 27.184
lfoot -15.1297 2.77581
ltoes -20.6339
2554
root -11.4165 17.7333 -1.28996 183.818 78.6176 166.324
lowerback 11.7614 -0.993294 -1.43262
upperback 5.76021 -1.06019 3.81421
thorax -0.460467 -0.472058 4.91367
lowerneck -10.1123 -6.74579 -8.61111
upperneck 37.1123 -6.92713 3.02775
head 15.0947 -3.19667 1.84454
rclavicle -2.14687e-014 -8.66701e-014
rhumerus 3.86592 -43.399 -65.9751
rradius 31.0506
rwrist -2.37501
rhand -42.901 -22.6199
rfingers 7.12502
rthumb -15.763 -51.998
lclavicle -2.14687e-014 -8.66701e-014
lhumerus 0.766994 -66.2987 91.461
lradius 74.0375
lwrist 72.8954
lhand -9.4659 58.789
lfingers 7.12502
lthumb 16.4979 -991.892
rfemur -40.6132 -3.33918 10.5444
rtibia 28.127
rfoot -11.0412 -6.87567
rtoes 10.6241
lfemur -24.4614 -0.9684 -21.0996
ltibia 27.4998
lfoot -15.2279 2.94034
ltoes -19.9996
2555
root -11.4708 17.7329 -1.32358 184.616 78.8655 167.245
lowerback 11.6666 -0.857991 -1.38595
upperback 5.75907 -0.874783 3.93262
thorax -0.426658 -0.380424 4.98845
lowerneck -10.0634 -6.90072 -8.68564
upperneck 37.1345 -7.1457 3.05138
head 15.1186 -3.29477 1.83271
rclavicle -1.27222e-014 -1.74931e-014
rhumerus 4.04879 -42.7628 -66.6129
rradius 31.1768
rwrist -2.666
rhand -42.7668 -22.4393
rfingers 7.12502
rthumb -15.6338 -51.8276
lclavicle -1.27222e-014 -1.74931e-014
lhumerus -0.381321 -65.8465 92.2774
lradius 73.785
lwrist 72.639
lhand -9.12386 59.6904
lfingers 7.12502
lthumb 16.8272 -991.019
rfemur -40.4453 -3.66823 10.8145
rtibia 28.0333
rfoot -12.2895 -6.99286
rtoes 10.8483
lfemur -24.6724 -0.666027 -21.1012
ltibia 27.8005
lfoot -15.3911 2.87988
ltoes -19.0641
